{"title":"Women Aren't Funny (2014) WEB-DL 1080p","uid":12203799,"size":1831702714,"categoryP":"video","categoryS":"hd___movies","magnet":"?xt=urn:btih:a38aa4e2415e837e17bb5306661b27e293f16f43&amp;dn=Women+Aren%27t+Funny+%282014%29+WEB-DL+1080p&amp;tr=udp%3A%2F%2Ftracker.openbittorrent.com%3A80&amp;tr=udp%3A%2F%2Fopen.demonii.com%3A1337&amp;tr=udp%3A%2F%2Ftracker.coppersurfer.tk%3A6969&amp;tr=udp%3A%2F%2Fexodus.desync.com%3A6969","seeders":0,"leechers":0,"uploader":"NotHuman","files":9,"time":1438882580,"description":"Women Aren't Funny (2014)\n1080p WEB-DL rip\n\nIMDB: http://www.imdb.com/title/tt3992752/\n\nComedian Bonnie McFarlane dons her investigative journalist's hat to find out once and for all if women are funny and report her unbiased findings in what some are calling the most important documentary of our generation.\n\nFeaturing Bonnie McFarlane, Rich Vos, Artie Lange, Joan Rivers, Tom Arnold, Colin Quinn, Doug Stanhope, Todd Glass, Chelsea Peretti, Amy Schumer, Sarah Silverman, Michael Ian Black, Opie and Anthony, Jim Norton\n\nScreenshots:\n &lt;a href=&quot;\nhttp://postimg.org/image/g1cf0p7e1/&quot; rel=&quot;nofollow&quot; target=&quot;_NEW&quot;&gt;\nhttp://postimg.org/image/g1cf0p7e1/&lt;/a&gt;\n &lt;a href=&quot;\nhttp://postimg.org/image/4v8x89ig9/&quot; rel=&quot;nofollow&quot; target=&quot;_NEW&quot;&gt;\nhttp://postimg.org/image/4v8x89ig9/&lt;/a&gt;\n &lt;a href=&quot;\nhttp://postimg.org/image/yuy7xp5m1/&quot; rel=&quot;nofollow&quot; target=&quot;_NEW&quot;&gt;\nhttp://postimg.org/image/yuy7xp5m1/&lt;/a&gt;\n &lt;a href=&quot;\nhttp://postimg.org/image/sjof3jezt/&quot; rel=&quot;nofollow&quot; target=&quot;_NEW&quot;&gt;\nhttp://postimg.org/image/sjof3jezt/&lt;/a&gt;\n &lt;a href=&quot;\nhttp://postimg.org/image/w9sna6g89/&quot; rel=&quot;nofollow&quot; target=&quot;_NEW&quot;&gt;\nhttp://postimg.org/image/w9sna6g89/&lt;/a&gt;\n &lt;a href=&quot;\nhttp://postimg.org/image/7ht12xz1l/&quot; rel=&quot;nofollow&quot; target=&quot;_NEW&quot;&gt;\nhttp://postimg.org/image/7ht12xz1l/&lt;/a&gt;\n &lt;a href=&quot;\nhttp://postimg.org/image/cx1r3wqll/&quot; rel=&quot;nofollow&quot; target=&quot;_NEW&quot;&gt;\nhttp://postimg.org/image/cx1r3wqll/&lt;/a&gt;\n\n\nMediaInfo:\n\nGeneral\nComplete name                            : D:uploadsWomen Aren't Funny (2014) WEB-DL 1080pWomen Aren't Funny (2014) WEB-DL 1080p.mp4\nFormat                                   : MPEG-4\nFormat profile                           : Base Media / Version 2\nCodec ID                                 : mp42\nFile size                                : 1.69 GiB\nDuration                                 : 1h 18mn\nOverall bit rate mode                    : Variable\nOverall bit rate                         : 3 104 Kbps\nMovie name                               : 2014\nDescription                              : Description here.\nRecorded date                            : 2014-11-25\nEncoded date                             : UTC 2014-11-25 12:13:25\nTagged date                              : UTC 2014-11-25 13:03:33\nWriting application                      : HandBrake 0.9.9 2013052900\n\nVideo\nID                                       : 1\nFormat                                   : AVC\nFormat/Info                              : Advanced Video Codec\nFormat profile                           : &lt;a class=&quot;__cf_email__&quot; href=&quot;/cdn-cgi/l/email-protection&quot; data-cfemail=&quot;7a32131d123a364e544a&quot;&gt;[email&amp;#160;protected]&lt;/a&gt;&lt;script data-cfhash='f9e31' type=&quot;text/javascript&quot;&gt;\n/* &lt;![CDATA[ */!function(){try{var t=&quot;currentScript&quot;in document?document.currentScript:function(){for(var t=document.getElementsByTagName(&quot;script&quot;),e=t.length;e--;)if(t[e].getAttribute(&quot;data-cfhash&quot;))return t[e]}();if(t&amp;&amp;t.previousSibling){var e,r,n,i,c=t.previousSibling,a=c.getAttribute(&quot;data-cfemail&quot;);if(a){for(e=&quot;&quot;,r=parseInt(a.substr(0,2),16),n=2;a.length-n;n+=2)i=parseInt(a.substr(n,2),16)^r,e+=String.fromCharCode(i);e=document.createTextNode(e),c.parentNode.replaceChild(e,c)}t.parentNode.removeChild(t);}}catch(u){}}()/* ]]&gt; */&lt;/script&gt;\nFormat settings, CABAC                   : Yes\nFormat settings, ReFrames                : 4 frames\nCodec ID                                 : avc1\nCodec ID/Info                            : Advanced Video Coding\nDuration                                 : 1h 18mn\nBit rate                                 : 2 875 Kbps\nWidth                                    : 1 920 pixels\nHeight                                   : 1 076 pixels\nDisplay aspect ratio                     : 16:9\nFrame rate mode                          : Constant\nFrame rate                               : 30.000 fps\nColor space                              : YUV\nChroma subsampling                       : 4:2:0\nBit depth                                : 8 bits\nScan type                                : Progressive\nBits/(Pixel*Frame)                       : 0.046\nStream size                              : 1.57 GiB (93%)\nWriting library                          : x264 core 130 r2273 b3065e6\nEncoding settings                        : cabac=1 / ref=2 / deblock=1:0:0 / analyse=0x3:0x113 / me=hex / subme=4 / psy=1 / psy_rd=1.00:0.00 / mixed_ref=0 / me_range=16 / chroma_me=1 / trellis=1 / 8x8dct=1 / cqm=0 / deadzone=21,11 / fast_pskip=1 / chroma_qp_offset=0 / threads=12 / lookahead_threads=3 / sliced_threads=0 / nr=0 / decimate=1 / interlaced=0 / bluray_compat=0 / constrained_intra=0 / bframes=3 / b_pyramid=2 / b_adapt=1 / b_bias=0 / direct=1 / weightb=1 / open_gop=0 / weightp=1 / keyint=300 / keyint_min=30 / scenecut=40 / intra_refresh=0 / rc_lookahead=20 / rc=crf / mbtree=1 / crf=25.0 / qcomp=0.60 / qpmin=0 / qpmax=69 / qpstep=4 / ip_ratio=1.40 / aq=1:1.00\nEncoded date                             : UTC 2014-11-25 12:13:25\nTagged date                              : UTC 2014-11-25 13:03:33\nColor primaries                          : BT.709\nTransfer characteristics                 : BT.709\nMatrix coefficients                      : BT.709\n\nAudio\nID                                       : 2\nFormat                                   : AAC\nFormat/Info                              : Advanced Audio Codec\nFormat profile                           : LC\nCodec ID                                 : 40\nDuration                                 : 1h 18mn\nBit rate mode                            : Variable\nBit rate                                 : 224 Kbps\nMaximum bit rate                         : 284 Kbps\nChannel(s)                               : 2 channels\nChannel positions                        : Front: L R\nSampling rate                            : 48.0 KHz\nCompression mode                         : Lossy\nStream size                              : 125 MiB (7%)\nLanguage                                 : English\nEncoded date                             : UTC 2014-11-25 12:13:25\nTagged date                              : UTC 2014-11-25 13:03:32","torrent":{"xt":"urn:btih:a38aa4e2415e837e17bb5306661b27e293f16f43","amp;dn":"Women+Aren%27t+Funny+%282014%29+WEB-DL+1080p","amp;tr":["udp%3A%2F%2Ftracker.openbittorrent.com%3A80","udp%3A%2F%2Fopen.demonii.com%3A1337","udp%3A%2F%2Ftracker.coppersurfer.tk%3A6969","udp%3A%2F%2Fexodus.desync.com%3A6969"],"infoHash":"a38aa4e2415e837e17bb5306661b27e293f16f43","infoHashBuffer":{"type":"Buffer","data":[163,138,164,226,65,94,131,126,23,187,83,6,102,27,39,226,147,241,111,67]},"announce":[],"urlList":[]}}